# xmcd
#
# Track frame offsets:
#	172
#	11757
#	23445
#	37582
#	53882
#	86890
#	101487
#	113080
#	127570
#	142942
#
# Disc length: 2355 seconds
#
# Revision: 0
# Processed by: cddbd v1.4PL0 Copyright (c) Steve Scherf et al.
# Submitted via: audiograbber 1.81.03
#
DISCID=6909310a
DTITLE=The Universal-International Orchestra - The Glenn Miller Story
DYEAR=1900
DGENRE=
TTITLE0=Miller Parish - Moonlight Serenade
TTITLE1=Hawkins Johnson Dash Feyne - Tuxedo Junction
TTITLE2=Miller Finegan - Little Brown Jug
TTITLE3=March Handy - St. Louis Blues
TTITLE4=Williams - Basin St. Blues
TTITLE5=Garland - In The Mood
TTITLE6=Gray - A String of Pearls
TTITLE7=Gray Sigman - Pennsylvania 6 - 5000
TTITLE8=Gray Meecham - American Patrol
TTITLE9=Louis Armstrong - Otchi Tchorn Ni Ya
EXTD=
EXTT0=
EXTT1=
EXTT2=
EXTT3=
EXTT4=
EXTT5=
EXTT6=
EXTT7=
EXTT8=
EXTT9=
PLAYORDER=
